<svg width="110" height="50" viewBox="0 0 110 50" fill="none" xmlns="http://www.w3.org/2000/svg">
<rect width="110" height="50" fill="white"/>
<path d="M80.513 33.3233V34.3365H96.3443C96.7374 34.3365 97.0715 34.4717 97.3467 34.7419C97.6219 35.0121 97.7594 35.3209 97.7594 35.6683C97.7594 36.035 97.6219 36.3438 97.3467 36.5947C97.0715 36.8649 96.7374 37 96.3443 37H78.8915C78.4198 37 78.0267 36.8456 77.7123 36.5368C77.4175 36.228 77.27 35.8709 77.27 35.4656V32.2232C77.27 31.8179 77.4175 31.4608 77.7123 31.152C78.0267 30.8239 78.4198 30.6598 78.8915 30.6598H94.5165V29.6755H78.6557C78.2626 29.6755 77.9285 29.5404 77.6533 29.2702C77.3978 29 77.27 28.6815 77.27 28.3148C77.27 27.9674 77.3978 27.6586 77.6533 27.3884C77.9285 27.1182 78.2626 26.9831 78.6557 26.9831H96.138C96.59 26.9831 96.9634 27.1472 97.2583 27.4753C97.5727 27.7841 97.73 28.1411 97.73 28.5464V31.7889C97.73 32.1942 97.5727 32.5513 97.2583 32.8601C96.9634 33.1689 96.59 33.3233 96.138 33.3233H80.513ZM78.921 19.1665H80.8373V15.6635H78.921C78.5279 15.6635 78.1938 15.538 77.9186 15.2871C77.6631 15.0169 77.5354 14.6984 77.5354 14.3317C77.5354 13.9843 77.6631 13.6755 77.9186 13.4053C78.1938 13.1351 78.5279 13 78.921 13H96.0495C96.4819 13 96.816 13.1351 97.0519 13.4053C97.3074 13.6755 97.4351 13.994 97.4351 14.3607C97.4351 14.7274 97.3172 15.0362 97.0814 15.2871C96.8455 15.538 96.5114 15.6635 96.079 15.6635H94.1627V19.1665H96.0495C96.4819 19.1665 96.816 19.3016 97.0519 19.5718C97.3074 19.842 97.4351 20.1604 97.4351 20.5271C97.4351 20.8745 97.3074 21.1834 97.0519 21.4536C96.816 21.7045 96.4917 21.8299 96.079 21.8299H78.921C78.5279 21.8299 78.1938 21.6948 77.9186 21.4246C77.6631 21.1544 77.5354 20.8456 77.5354 20.4982C77.5354 20.1508 77.6631 19.842 77.9186 19.5718C78.1938 19.3016 78.5279 19.1665 78.921 19.1665ZM84.0802 15.6635V19.1665H90.9198V15.6635H84.0802ZM75 24.4065C75 24.0398 75.1278 23.7214 75.3833 23.4511C75.6584 23.1809 75.9925 23.0458 76.3856 23.0458H98.6144C99.0075 23.0458 99.3318 23.1809 99.5873 23.4511C99.8624 23.7214 100 24.0398 100 24.4065C100 24.7539 99.8624 25.0627 99.5873 25.3329C99.3318 25.6031 99.0075 25.7382 98.6144 25.7382H76.3856C75.9925 25.7382 75.6584 25.6031 75.3833 25.3329C75.1278 25.0627 75 24.7539 75 24.4065Z" fill="#5E5F5F"/>
<path d="M58.1111 23.2122V20.8093H52.3333C51.9444 20.8093 51.6204 20.6758 51.3611 20.4088C51.1204 20.1418 51 19.8367 51 19.4934C51 19.1502 51.1204 18.8451 51.3611 18.5781C51.6204 18.3111 51.9444 18.1776 52.3333 18.1776H58.0833C57.9722 17.5483 57.6759 17.0238 57.1944 16.6043C56.713 16.1847 56.1574 15.975 55.5278 15.975H52.3333C51.9444 15.975 51.6204 15.8415 51.3611 15.5745C51.1204 15.3075 51 14.9928 51 14.6305C51 14.2872 51.1204 13.9917 51.3611 13.7437C51.6204 13.4768 51.9352 13.3433 52.3056 13.3433H55.8333C57.3519 13.3433 58.6204 13.8868 59.6389 14.9738C60.6574 16.0417 61.1667 17.3004 61.1667 18.7497V23.2408C61.1667 23.6222 61.0185 23.975 60.7222 24.2992C60.4444 24.6043 60.0926 24.7569 59.6667 24.7569C59.2222 24.7569 58.8519 24.6043 58.5556 24.2992C58.2593 23.994 58.1111 23.6317 58.1111 23.2122ZM68.9444 20.6377H67.25V23.584C67.25 23.9845 67.1019 24.3373 66.8056 24.6424C66.5093 24.9476 66.1481 25.1001 65.7222 25.1001C65.2778 25.1001 64.9074 24.9476 64.6111 24.6424C64.3333 24.3373 64.1944 23.9845 64.1944 23.584V14.5161C64.1944 14.1156 64.3333 13.7628 64.6111 13.4577C64.9074 13.1526 65.2778 13 65.7222 13C66.1481 13 66.5093 13.1526 66.8056 13.4577C67.1019 13.7628 67.25 14.1156 67.25 14.5161V18.006H68.9444V14.5161C68.9444 14.1156 69.0926 13.7628 69.3889 13.4577C69.6852 13.1526 70.0463 13 70.4722 13C70.9167 13 71.2778 13.1526 71.5556 13.4577C71.8519 13.7628 72 14.1156 72 14.5161V24.1275C72 24.528 71.8519 24.8808 71.5556 25.1859C71.2778 25.4911 70.9167 25.6436 70.4722 25.6436C70.0463 25.6436 69.6852 25.4911 69.3889 25.1859C69.0926 24.8808 68.9444 24.528 68.9444 24.1275V20.6377ZM55.75 29.8772V34.3683H68.9444V29.8772H55.75ZM52.6944 35.4839V28.7616C52.6944 28.3611 52.8426 28.0083 53.1389 27.7032C53.4352 27.3981 53.7963 27.2455 54.2222 27.2455H70.4722C70.9167 27.2455 71.2778 27.3981 71.5556 27.7032C71.8519 28.0083 72 28.3611 72 28.7616V35.4839C72 35.8844 71.8519 36.2372 71.5556 36.5423C71.2778 36.8474 70.9167 37 70.4722 37H54.2222C53.7963 37 53.4352 36.8474 53.1389 36.5423C52.8426 36.2372 52.6944 35.8844 52.6944 35.4839Z" fill="#5E5F5F"/>
<path d="M21.2168 7C26.3246 7.00015 30.5565 10.7484 31.3125 15.6445H28.1113C27.3964 12.4951 24.5826 10.1437 21.2168 10.1436C17.3106 10.1436 14.1437 13.3097 14.1436 17.2158C14.1436 21.1221 17.3105 24.2891 21.2168 24.2891C23.3109 24.289 25.1913 23.3779 26.4863 21.9316H30.2793C28.5753 25.2 25.1577 27.4325 21.2168 27.4326C15.5744 27.4326 11 22.8582 11 17.2158C11.0002 11.5736 15.5745 7 21.2168 7Z" fill="#9AC5ED"/>
<path d="M31.7764 17.2188C37.3381 17.3599 41.8032 21.9131 41.8037 27.5088C41.8037 32.574 38.1449 36.7856 33.3262 37.6436V43.8584H21.2168V29.0029C21.2197 29.0029 21.2227 29.0039 21.2256 29.0039C22.3114 29.0039 23.3622 28.855 24.3604 28.5801V40.7148H30.1826V35.0098L32.7754 34.5479C36.1202 33.9522 38.6602 31.0241 38.6602 27.5088C38.6596 23.6247 35.5614 20.4629 31.7031 20.3613L31.4746 20.3594H21.2168V17.2158H31.5107L31.7764 17.2188Z" fill="#C09EF1"/>
</svg>
