<svg width="39" height="70" viewBox="0 0 39 70" fill="none" xmlns="http://www.w3.org/2000/svg">
<path d="M26.7223 57.8376V55.4016H28.4163V62.1916H26.7223V59.4056H25.4343V62.1916H23.8103V55.5416H25.4343V57.8376H26.7223ZM17.1603 55.9616H22.6063V61.7576H17.1603V55.9616ZM18.7563 60.1896H21.0243V57.5296H18.7563V60.1896ZM21.2203 64.0536H26.6383V62.7656H28.4163V68.4776H19.4283V62.7656H21.2203V64.0536ZM21.2203 65.6076V66.8956H26.6383V65.6076H21.2203Z" fill="#C0C0C0"/>
<path d="M35.5841 21.7053L26.1514 24.8154L25.9799 24.8835C25.6489 25.0399 25.3859 25.3125 25.2418 25.6491L25.1807 25.8221L22.4161 35.3628L9.97258 10.1878L35.5841 21.7053Z" stroke="#C0C0C0" stroke-width="2"/>
</svg>
